# xmcd
#
# Track frame offsets:
#	150
#	16110
#	32255
#	55424
#	72174
#	94559
#	126268
#	147448
#
# Disc length: 2163 seconds
#
# Revision: 0
# Processed by: cddbd v1.5.2PL0 Copyright (c) Steve Scherf et al.
# Submitted via: EZCDAudioConverter 1.3.4.1
#
DISCID=63087108
DTITLE=Hedzoleh Soundz - Hedzoleh
DYEAR=1900
DGENRE=
TTITLE0=Rekpete
TTITLE1=Mee Bee (When)
TTITLE2=Yei Baa Gbe Wo
TTITLE3=Kaa Ye Oyai (Don't Be In A Hurry)
TTITLE4=Omusu Da Fe M'Musu
TTITLE5=Hedzoleh!
TTITLE6=Hearts Ne Kotoko
TTITLE7=Mo Oso Obu Naa
EXTD=
EXTT0=
EXTT1=
EXTT2=
EXTT3=
EXTT4=
EXTT5=
EXTT6=
EXTT7=
PLAYORDER=
